<svg width="32" height="33" viewBox="0 0 32 33" fill="none" xmlns="http://www.w3.org/2000/svg">
<path d="M23.3874 12.5795C21.0274 12.5795 19.1074 10.6595 19.1074 8.29953C19.1074 5.93953 21.0274 4.01953 23.3874 4.01953C25.7474 4.01953 27.6674 5.93953 27.6674 8.29953C27.6674 10.6595 25.7474 12.5795 23.3874 12.5795ZM23.3874 6.0062C22.1341 6.0062 21.1074 7.03286 21.1074 8.2862C21.1074 9.53953 22.1341 10.5662 23.3874 10.5662C24.6407 10.5662 25.6674 9.53953 25.6674 8.2862C25.6674 7.03286 24.6407 6.0062 23.3874 6.0062Z" fill="white" fill-opacity="0.8"/>
<path d="M8.61399 12.5795C6.25399 12.5795 4.33398 10.6595 4.33398 8.29953C4.33398 5.93953 6.25399 4.01953 8.61399 4.01953C10.974 4.01953 12.894 5.93953 12.894 8.29953C12.894 10.6595 10.974 12.5795 8.61399 12.5795ZM8.61399 6.0062C7.36066 6.0062 6.33398 7.03286 6.33398 8.2862C6.33398 9.53953 7.36066 10.5662 8.61399 10.5662C9.86733 10.5662 10.894 9.53953 10.894 8.2862C10.894 7.03286 9.88066 6.0062 8.61399 6.0062Z" fill="white" fill-opacity="0.8"/>
<path d="M23.3874 28.9936C21.0274 28.9936 19.1074 27.0736 19.1074 24.7136C19.1074 22.3536 21.0274 20.4336 23.3874 20.4336C25.7474 20.4336 27.6674 22.3536 27.6674 24.7136C27.6674 27.0736 25.7474 28.9936 23.3874 28.9936ZM23.3874 22.4203C22.1341 22.4203 21.1074 23.4469 21.1074 24.7003C21.1074 25.9536 22.1341 26.9803 23.3874 26.9803C24.6407 26.9803 25.6674 25.9536 25.6674 24.7003C25.6674 23.4469 24.6407 22.4203 23.3874 22.4203Z" fill="white" fill-opacity="0.8"/>
<path d="M8.61399 28.9936C6.25399 28.9936 4.33398 27.0736 4.33398 24.7136C4.33398 22.3536 6.25399 20.4336 8.61399 20.4336C10.974 20.4336 12.894 22.3536 12.894 24.7136C12.894 27.0736 10.974 28.9936 8.61399 28.9936ZM8.61399 22.4203C7.36066 22.4203 6.33398 23.4469 6.33398 24.7003C6.33398 25.9536 7.36066 26.9803 8.61399 26.9803C9.86733 26.9803 10.894 25.9536 10.894 24.7003C10.894 23.4469 9.88066 22.4203 8.61399 22.4203Z" fill="white" fill-opacity="0.8"/>
</svg>
