<svg width="33" height="33" viewBox="0 0 33 33" fill="none" xmlns="http://www.w3.org/2000/svg">
<rect x="2.5" y="2.5" width="28" height="28" rx="14" fill="white"/>
<path d="M22.7477 10.5963C21.5825 10.0842 20.3367 9.71193 19.0342 9.5C18.8742 9.77171 18.6873 10.1372 18.5585 10.4279C17.1739 10.2323 15.802 10.2323 14.4429 10.4279C14.314 10.1372 14.1229 9.77171 13.9615 9.5C12.6576 9.71193 11.4103 10.0855 10.2451 10.5991C7.89498 13.9356 7.25789 17.1894 7.57644 20.3969C9.13519 21.4905 10.6458 22.1548 12.1309 22.5895C12.4976 22.1154 12.8247 21.6114 13.1064 21.0802C12.5698 20.8887 12.0559 20.6523 11.5703 20.3778C11.6991 20.2882 11.8251 20.1945 11.9469 20.098C14.9087 21.3995 18.1267 21.3995 21.0531 20.098C21.1762 20.1945 21.3022 20.2882 21.4296 20.3778C20.9426 20.6536 20.4273 20.89 19.8907 21.0816C20.1725 21.6114 20.4981 22.1168 20.8662 22.5909C22.3527 22.1562 23.8647 21.4919 25.4235 20.3969C25.7973 16.6786 24.785 13.4547 22.7477 10.5963ZM13.5099 18.4243C12.6208 18.4243 11.8917 17.6444 11.8917 16.6949C11.8917 15.7452 12.6052 14.9641 13.5099 14.9641C14.4146 14.9641 15.1437 15.7439 15.1281 16.6949C15.1295 17.6444 14.4146 18.4243 13.5099 18.4243ZM19.4901 18.4243C18.601 18.4243 17.8718 17.6444 17.8718 16.6949C17.8718 15.7452 18.5854 14.9641 19.4901 14.9641C20.3947 14.9641 21.1238 15.7439 21.1083 16.6949C21.1083 17.6444 20.3947 18.4243 19.4901 18.4243Z" fill="#5865F2"/>
</svg>
