<svg xmlns="http://www.w3.org/2000/svg" width="17" height="17" viewBox="0 0 17 17" fill="none">
  <path d="M8.50005 0.902344C4.23661 0.902344 0.785767 4.35259 0.785767 8.61663C0.785767 12.8801 4.23601 16.3309 8.50005 16.3309C12.7635 16.3309 16.2143 12.8807 16.2143 8.61663C16.2143 4.35316 12.7641 0.902344 8.50005 0.902344ZM7.2639 2.22462C7.66709 2.14751 8.0805 2.1077 8.50005 2.1077C8.91961 2.1077 9.33301 2.14751 9.73621 2.22462C10.3768 2.97728 10.8761 4.19583 11.1673 5.64344H5.83281C6.12396 4.19583 6.62328 2.97728 7.2639 2.22462ZM1.99112 8.61663C1.99112 8.01043 2.07369 7.41694 2.23304 6.84876H4.43221C4.37264 7.42137 4.34157 8.01323 4.34157 8.61663C4.34157 9.22003 4.37264 9.81189 4.43221 10.3845H2.23304C2.07369 9.81632 1.99112 9.22283 1.99112 8.61663ZM2.70671 11.5899H4.60479C4.79659 12.6306 5.0882 13.5785 5.46309 14.3769C4.29857 13.7611 3.32157 12.7847 2.70671 11.5899ZM4.60479 5.6434H2.70671C3.3216 4.4485 4.29863 3.47217 5.46309 2.85638C5.0882 3.65478 4.79662 4.60264 4.60479 5.6434ZM9.73621 15.0086C9.33301 15.0858 8.91961 15.1256 8.50005 15.1256C8.0805 15.1256 7.66709 15.0858 7.2639 15.0086C6.62331 14.256 6.12399 13.0374 5.83281 11.5898H11.1673C10.8761 13.0374 10.3768 14.256 9.73621 15.0086ZM11.3549 10.3845H5.64522C5.58083 9.81361 5.54693 9.22042 5.54693 8.61663C5.54693 8.01284 5.58083 7.41965 5.64522 6.84876H11.3549C11.4193 7.41965 11.4532 8.01284 11.4532 8.61663C11.4532 9.22042 11.4193 9.81361 11.3549 10.3845ZM14.2934 5.6434H12.3953C12.2035 4.60264 11.9119 3.65478 11.537 2.85638C12.7015 3.4722 13.6785 4.44859 14.2934 5.6434ZM11.537 14.3769C11.9119 13.5785 12.2035 12.6306 12.3953 11.5898H14.2934C13.6785 12.7847 12.7014 13.7611 11.537 14.3769ZM12.5679 10.3845C12.6275 9.81189 12.6585 9.22003 12.6585 8.61663C12.6585 8.01323 12.6275 7.42137 12.5679 6.84876H14.7671C14.9264 7.41694 15.009 8.01043 15.009 8.61663C15.009 9.22283 14.9264 9.81632 14.7671 10.3845H12.5679Z" fill="white" fill-opacity="0.8"/>
</svg>