<svg width="49" height="49" viewBox="827 0 49 49" fill="none" xmlns="http://www.w3.org/2000/svg">
  <g clip-path="url(#clip0_3001_7242)">
    <path d="M851.78 25.7251H851.728L847.605 13.6316H842.154V30.9606C843.092 30.4655 844.157 30.0442 845.317 29.7071V18.8882L845.37 17.4977L850.199 28.917C850.821 28.8643 851 28.8432 851.643 28.8432C852.287 28.8432 852.455 28.8748 853.077 28.917L857.907 17.3713L857.959 18.7618V29.7071C859.109 30.0442 860.173 30.4655 861.122 30.9606V13.6316H855.671L851.77 25.7251H851.78Z" fill="white"></path>
    <path d="M847.268 37.5551C848.438 37.5551 849.387 36.6071 849.387 35.4377C849.387 34.2683 848.438 33.3203 847.268 33.3203C846.097 33.3203 845.148 34.2683 845.148 35.4377C845.148 36.6071 846.097 37.5551 847.268 37.5551Z" fill="white"></path>
    <path d="M856.02 37.5551C857.19 37.5551 858.139 36.6071 858.139 35.4377C858.139 34.2683 857.19 33.3203 856.02 33.3203C854.849 33.3203 853.901 34.2683 853.901 35.4377C853.901 36.6071 854.849 37.5551 856.02 37.5551Z" fill="white"></path>
    <path d="M851.644 0C838.21 0 827.287 10.9136 827.287 24.3344C827.287 37.7553 838.21 48.6689 851.644 48.6689C865.077 48.6689 876 37.7553 876 24.3344C876 10.9136 865.077 0 851.644 0ZM851.644 45.4243C840.003 45.4243 830.534 35.9644 830.534 24.3344C830.534 12.7045 840.003 3.24459 851.644 3.24459C863.284 3.24459 872.753 12.7045 872.753 24.3344C872.753 35.9644 863.284 45.4243 851.644 45.4243Z" fill="white"></path>
  </g>
  <defs>
    <clipPath id="clip0_3001_7242">
      <rect width="876" height="110" fill="white"></rect>
    </clipPath>
  </defs>
</svg>