<svg width="105" height="122" viewBox="0 0 105 122" fill="none" xmlns="http://www.w3.org/2000/svg">
<path d="M52.4753 60.5417L104.742 90.6939V30.3894L52.4753 60.5417Z" fill="#111114"/>
<path d="M52.4754 60.5414L104.742 30.3892L52.4754 0.237L0.201172 30.3892L52.4754 60.5414L0.208357 30.3892V90.6865L52.4754 60.5414L0.208357 90.6865L0.201172 90.6936L52.4754 120.839L104.742 90.6936L52.4754 60.5414Z" fill="#111114"/>
<path d="M52.4754 60.5414L104.944 90.8085V30.2672L52.4754 60.5414Z" fill="url(#paint0_radial_2020_150)"/>
<path d="M52.4754 60.5413V0L0 30.2671L52.4754 60.5413Z" fill="url(#paint1_radial_2020_150)"/>
<path d="M0 30.2744V90.8085L52.4754 60.5414L0 30.2744Z" fill="url(#paint2_linear_2020_150)"/>
<path d="M52.4754 60.5415V121.076L104.944 90.8086L52.4754 60.5415Z" fill="url(#paint3_radial_2020_150)"/>
<path d="M52.4754 60.5414L104.944 30.2672L52.4754 9.15527e-05V60.5414Z" fill="url(#paint4_radial_2020_150)"/>
<path d="M52.4754 121.076V60.5415L0 90.8086L52.4754 121.076Z" fill="url(#paint5_radial_2020_150)"/>
<defs>
<radialGradient id="paint0_radial_2020_150" cx="0" cy="0" r="1" gradientUnits="userSpaceOnUse" gradientTransform="translate(52.5401 60.405) scale(53.2802 53.233)">
<stop offset="0.1" stop-color="white" stop-opacity="0.45"/>
<stop offset="0.69" stop-color="white" stop-opacity="0.27"/>
<stop offset="1" stop-color="white" stop-opacity="0.2"/>
</radialGradient>
<radialGradient id="paint1_radial_2020_150" cx="0" cy="0" r="1" gradientUnits="userSpaceOnUse" gradientTransform="translate(51.9365 59.1917) scale(44.9954 44.9555)">
<stop offset="0.1" stop-color="white" stop-opacity="0.95"/>
<stop offset="0.21" stop-color="white" stop-opacity="0.91"/>
<stop offset="0.74" stop-color="white" stop-opacity="0.72"/>
<stop offset="1" stop-color="white" stop-opacity="0.65"/>
</radialGradient>
<linearGradient id="paint2_linear_2020_150" x1="0" y1="60.5414" x2="52.4754" y2="60.5414" gradientUnits="userSpaceOnUse">
<stop offset="0.1" stop-color="white" stop-opacity="0.9"/>
<stop offset="1" stop-color="white"/>
</linearGradient>
<radialGradient id="paint3_radial_2020_150" cx="0" cy="0" r="1" gradientUnits="userSpaceOnUse" gradientTransform="translate(51.9365 60.4051) scale(53.273 53.2258)">
<stop offset="0.1" stop-color="white" stop-opacity="0.35"/>
<stop offset="0.63" stop-color="white" stop-opacity="0.22"/>
<stop offset="1" stop-color="white" stop-opacity="0.15"/>
</radialGradient>
<radialGradient id="paint4_radial_2020_150" cx="0" cy="0" r="1" gradientUnits="userSpaceOnUse" gradientTransform="translate(51.3329 61.0081) scale(53.1868 53.1397)">
<stop offset="0.1" stop-color="white" stop-opacity="0.95"/>
<stop offset="0.49" stop-color="white" stop-opacity="0.71"/>
<stop offset="0.83" stop-color="white" stop-opacity="0.52"/>
<stop offset="1" stop-color="white" stop-opacity="0.45"/>
</radialGradient>
<radialGradient id="paint5_radial_2020_150" cx="0" cy="0" r="1" gradientUnits="userSpaceOnUse" gradientTransform="translate(51.9365 61.0082) scale(53.0862 53.0392)">
<stop offset="0.1" stop-color="white"/>
<stop offset="0.63" stop-color="white" stop-opacity="0.87"/>
<stop offset="1" stop-color="white" stop-opacity="0.8"/>
</radialGradient>
</defs>
</svg>
