<svg width="167" height="167" viewBox="0 0 167 167" fill="none" xmlns="http://www.w3.org/2000/svg">
<rect width="167" height="167" rx="83.5" fill="#8247E5"/>
<path d="M112.319 63.5638C110.235 62.3769 107.556 62.3769 105.175 63.5638L88.5065 73.3561L77.1958 79.5875L60.8251 89.3798C58.7415 90.5668 56.0627 90.5668 53.6815 89.3798L40.8825 81.6647C38.799 80.4777 37.3107 78.1039 37.3107 75.4332V60.5964C37.3107 58.2226 38.5013 55.8487 40.8825 54.365L53.6815 46.9466C55.765 45.7596 58.4439 45.7596 60.8251 46.9466L73.624 54.6617C75.7076 55.8487 77.1958 58.2226 77.1958 60.8932V70.6855L88.5065 64.1573V54.0682C88.5065 51.6944 87.3159 49.3205 84.9347 47.8368L61.1227 33.8902C59.0392 32.7033 56.3603 32.7033 53.9791 33.8902L29.5718 48.1335C27.1906 49.3205 26 51.6944 26 54.0682V81.9614C26 84.3353 27.1906 86.7092 29.5718 88.1929L53.6815 102.139C55.765 103.326 58.4439 103.326 60.8251 102.139L77.1958 92.6439L88.5065 86.1157L104.877 76.6202C106.961 75.4332 109.64 75.4332 112.021 76.6202L124.82 84.0386C126.903 85.2255 128.392 87.5994 128.392 90.27V105.107C128.392 107.481 127.201 109.855 124.82 111.338L112.319 118.757C110.235 119.944 107.556 119.944 105.175 118.757L92.376 111.338C90.2924 110.151 88.8042 107.777 88.8042 105.107V95.6113L77.4935 102.139V111.932C77.4935 114.306 78.6841 116.68 81.0653 118.163L105.175 132.11C107.258 133.297 109.937 133.297 112.319 132.11L136.428 118.163C138.512 116.976 140 114.602 140 111.932V83.7418C140 81.368 138.809 78.9941 136.428 77.5104L112.319 63.5638Z" fill="white"/>
</svg>
