<svg xmlns="http://www.w3.org/2000/svg" width="321" height="164" fill="none">
  <g transform="rotate(180 160.5 82)">
    <path fill="#F7FF98" fill-rule="evenodd" d="M148.967 108.535c0-46.59-.129-54.742-.853-53.974-.469.498-9.911 15.938-20.982 34.31-33.878 56.22-36.01 59.696-36.601 59.696-.72 0-18.964-9.821-19.323-10.401-.145-.235 5.527-10.03 12.606-21.768a265685.34 265685.34 0 0 1 28.498-47.241c8.595-14.245 15.493-26.035 15.329-26.199-.164-.163-22.643 12.087-49.954 27.223L28.03 97.701l-5.578-9.245c-3.068-5.084-5.578-9.437-5.577-9.672.002-.236 2.304-1.702 5.117-3.258l49.765-27.528L116.408 23.3l-57.984-.31-57.985-.31V1.03L59.411.872l58.973-.158 20.851 19.799c11.469 10.889 21.015 19.798 21.214 19.798.334 0 17.478-16.108 31.308-29.417 3.241-3.118 7.037-6.679 8.437-7.912L202.74.739l58.85.145 58.849.146v21.65l-57.984.31-57.985.308 49.771 27.529c27.374 15.14 49.699 27.83 49.612 28.199-.086.368-2.53 4.627-5.429 9.463-3.75 6.253-5.55 8.72-6.238 8.542-.974-.252-90.764-49.769-96.243-53.075-1.62-.978-2.945-1.511-2.945-1.184 0 .327 12.707 21.649 28.238 47.381 15.531 25.732 28.298 47.082 28.372 47.443.129.633-17.207 10.906-18.471 10.946-.508.016-44.73-71.56-55.298-89.504-1.648-2.798-3.205-5.095-3.462-5.103-.256-.009-.465 24.62-.465 54.731v54.747h-22.945v-54.879z" clip-rule="evenodd"/>
  </g>
</svg>